<svg width="20" height="20" viewBox="0 0 20 20" fill="black" xmlns="http://www.w3.org/2000/svg">
<path d="M10.0001 1.66663C5.40008 1.66663 1.66675 5.39996 1.66675 9.99996C1.66675 14.6 5.40008 18.3333 10.0001 18.3333C14.6001 18.3333 18.3334 14.6 18.3334 9.99996C18.3334 5.39996 14.6001 1.66663 10.0001 1.66663ZM10.0001 15.4166C9.30842 15.4166 8.75008 14.8583 8.75008 14.1666H11.2501C11.2501 14.8583 10.6917 15.4166 10.0001 15.4166ZM14.1667 13.3333H5.83341V12.5L6.66675 11.6666V9.49163C6.66675 7.72496 7.52508 6.22496 9.16675 5.83329V5.41663C9.16675 4.94163 9.52508 4.58329 10.0001 4.58329C10.4751 4.58329 10.8334 4.94163 10.8334 5.41663V5.83329C12.4751 6.22496 13.3334 7.73329 13.3334 9.49163V11.6666L14.1667 12.5V13.3333Z" fill="inherit"/>
</svg>
