<svg xmlns="http://www.w3.org/2000/svg" width="20" height="20" viewBox="0 0 20 20" fill="black">
<path d="M10.8334 20C8.11674 20 5.67508 18.3417 4.66674 15.8167L2.14174 9.475C2.08322 9.32784 2.06785 9.16705 2.09742 9.01146C2.12699 8.85587 2.20029 8.71193 2.30872 8.59651C2.41716 8.48108 2.55624 8.39894 2.70967 8.35971C2.86311 8.32048 3.02455 8.32578 3.17508 8.375L3.83341 8.59167C4.30008 8.74167 4.68341 9.1 4.86674 9.55833L6.04174 12.5H6.66674V2.70833C6.66674 2.43207 6.77649 2.16711 6.97184 1.97176C7.16719 1.77641 7.43214 1.66667 7.70841 1.66667C7.98468 1.66667 8.24963 1.77641 8.44498 1.97176C8.64033 2.16711 8.75008 2.43207 8.75008 2.70833V10H9.58341V1.04167C9.58341 0.765399 9.69316 0.500447 9.88851 0.305097C10.0839 0.109747 10.3488 0 10.6251 0C10.9013 0 11.1663 0.109747 11.3616 0.305097C11.557 0.500447 11.6667 0.765399 11.6667 1.04167V10H12.5001V2.29167C12.5001 2.0154 12.6098 1.75045 12.8052 1.5551C13.0005 1.35975 13.2655 1.25 13.5417 1.25C13.818 1.25 14.083 1.35975 14.2783 1.5551C14.4737 1.75045 14.5834 2.0154 14.5834 2.29167V10H15.4167V4.79167C15.4167 4.5154 15.5265 4.25045 15.7218 4.0551C15.9172 3.85975 16.1821 3.75 16.4584 3.75C16.7347 3.75 16.9996 3.85975 17.195 4.0551C17.3903 4.25045 17.5001 4.5154 17.5001 4.79167V13.3333C17.5001 17.0167 14.5167 20 10.8334 20Z" fill="inherit"/>
</svg>