<svg width="20" height="20" viewBox="0 0 20 20" fill="none" xmlns="http://www.w3.org/2000/svg">
<path d="M10 2.5C8.01088 2.5 6.10322 3.29018 4.6967 4.6967C3.29018 6.10322 2.5 8.01088 2.5 10C2.5 11.9891 3.29018 13.8968 4.6967 15.3033C6.10322 16.7098 8.01088 17.5 10 17.5C10.6917 17.5 11.25 16.9417 11.25 16.25C11.25 15.925 11.125 15.6333 10.925 15.4083C10.7333 15.1917 10.6083 14.9 10.6083 14.5833C10.6083 13.8917 11.1667 13.3333 11.8583 13.3333H13.3333C15.6333 13.3333 17.5 11.4667 17.5 9.16667C17.5 5.48333 14.1417 2.5 10 2.5ZM5.41667 10C4.725 10 4.16667 9.44167 4.16667 8.75C4.16667 8.05833 4.725 7.5 5.41667 7.5C6.10833 7.5 6.66667 8.05833 6.66667 8.75C6.66667 9.44167 6.10833 10 5.41667 10ZM7.91667 6.66667C7.225 6.66667 6.66667 6.10833 6.66667 5.41667C6.66667 4.725 7.225 4.16667 7.91667 4.16667C8.60833 4.16667 9.16667 4.725 9.16667 5.41667C9.16667 6.10833 8.60833 6.66667 7.91667 6.66667ZM12.0833 6.66667C11.3917 6.66667 10.8333 6.10833 10.8333 5.41667C10.8333 4.725 11.3917 4.16667 12.0833 4.16667C12.775 4.16667 13.3333 4.725 13.3333 5.41667C13.3333 6.10833 12.775 6.66667 12.0833 6.66667ZM14.5833 10C13.8917 10 13.3333 9.44167 13.3333 8.75C13.3333 8.05833 13.8917 7.5 14.5833 7.5C15.275 7.5 15.8333 8.05833 15.8333 8.75C15.8333 9.44167 15.275 10 14.5833 10Z" fill="black"/>
</svg>
