<svg width="20" height="20" viewBox="0 0 20 20" fill="white" xmlns="http://www.w3.org/2000/svg">
<path d="M16.667 1.66666H3.33366C2.41699 1.66666 1.67533 2.41666 1.67533 3.33332L1.66699 18.3333L5.00033 15H16.667C17.5837 15 18.3337 14.25 18.3337 13.3333V3.33332C18.3337 2.41666 17.5837 1.66666 16.667 1.66666ZM6.66699 11.6667H5.00033V9.99999H6.66699V11.6667ZM6.66699 9.16666H5.00033V7.49999H6.66699V9.16666ZM6.66699 6.66666H5.00033V4.99999H6.66699V6.66666ZM12.5003 11.6667H8.33366V9.99999H12.5003V11.6667ZM15.0003 9.16666H8.33366V7.49999H15.0003V9.16666ZM15.0003 6.66666H8.33366V4.99999H15.0003V6.66666Z" fill="inherit"/>
</svg>
