<svg width="20" height="20" viewBox="0 0 20 20" fill="none" xmlns="http://www.w3.org/2000/svg">
<path d="M16.6667 1.66663H3.33341C2.41675 1.66663 1.67508 2.41663 1.67508 3.33329L1.66675 18.3333L5.00008 15H16.6667C17.5834 15 18.3334 14.25 18.3334 13.3333V3.33329C18.3334 2.41663 17.5834 1.66663 16.6667 1.66663ZM6.66675 11.6666H5.00008V9.99996H6.66675V11.6666ZM6.66675 9.16663H5.00008V7.49996H6.66675V9.16663ZM6.66675 6.66663H5.00008V4.99996H6.66675V6.66663ZM12.5001 11.6666H8.33342V9.99996H12.5001V11.6666ZM15.0001 9.16663H8.33342V7.49996H15.0001V9.16663ZM15.0001 6.66663H8.33342V4.99996H15.0001V6.66663Z" fill="black"/>
</svg>
