<svg width="20" height="20" viewBox="0 0 20 20" fill="black" xmlns="http://www.w3.org/2000/svg">
<path d="M7.49992 10.8333C9.34159 10.8333 10.8333 9.34163 10.8333 7.49996C10.8333 5.65829 9.34159 4.16663 7.49992 4.16663C5.65825 4.16663 4.16659 5.65829 4.16659 7.49996C4.16659 9.34163 5.65825 10.8333 7.49992 10.8333ZM7.49992 5.83329C8.41659 5.83329 9.16659 6.58329 9.16659 7.49996C9.16659 8.41663 8.41659 9.16663 7.49992 9.16663C6.58325 9.16663 5.83325 8.41663 5.83325 7.49996C5.83325 6.58329 6.58325 5.83329 7.49992 5.83329ZM7.49992 12.5C5.27492 12.5 0.833252 13.6166 0.833252 15.8333V17.5H14.1666V15.8333C14.1666 13.6166 9.72492 12.5 7.49992 12.5ZM2.49992 15.8333C2.68325 15.2333 5.25825 14.1666 7.49992 14.1666C9.74992 14.1666 12.3333 15.2416 12.4999 15.8333H2.49992ZM12.5666 5.87496C13.2666 6.85829 13.2666 8.13329 12.5666 9.11663L13.9666 10.525C15.6499 8.84163 15.6499 6.29996 13.9666 4.46663L12.5666 5.87496ZM16.7249 1.66663L15.3666 3.02496C17.6749 5.54163 17.6749 9.32496 15.3666 11.975L16.7249 13.3333C19.9749 10.0916 19.9833 5.04163 16.7249 1.66663Z" fill="inherit"/>
</svg>
