<svg width="20" height="20" viewBox="0 0 20 20" fill="black" xmlns="http://www.w3.org/2000/svg">
<path d="M13.9666 4.46663L12.5666 5.87496C13.2333 6.81663 13.2583 8.02496 12.6416 8.99163L14.0583 10.4083C15.6416 8.72496 15.6166 6.25829 13.9666 4.46663ZM16.7249 1.66663L15.3666 3.02496C17.6333 5.49996 17.6666 9.18329 15.4833 11.825L16.8499 13.1916C19.9666 9.94996 19.9416 4.99163 16.7249 1.66663ZM7.85825 4.19996L10.7999 7.14163C10.7189 6.38922 10.3829 5.68718 9.8478 5.15208C9.3127 4.61697 8.61065 4.281 7.85825 4.19996ZM3.67492 2.38329L2.49992 3.55829L4.68325 5.74163C4.35825 6.24996 4.16658 6.84996 4.16658 7.49996C4.16658 9.34163 5.65825 10.8333 7.49992 10.8333C8.14992 10.8333 8.74992 10.6416 9.25825 10.3166L12.9249 13.9833C11.4499 13 8.98325 12.5 7.49992 12.5C5.27492 12.5 0.833252 13.6166 0.833252 15.8333V17.5H14.1666V15.8333C14.1666 15.525 14.0749 15.25 13.9249 14.9833L16.4416 17.5L17.6166 16.325L3.67492 2.38329ZM2.49992 15.8333C2.68325 15.2333 5.25825 14.1666 7.49992 14.1666C9.74992 14.1666 12.3333 15.2416 12.4999 15.8333H2.49992ZM7.49992 9.16663C6.58325 9.16663 5.83325 8.41663 5.83325 7.49996C5.83325 7.31663 5.86658 7.14996 5.92492 6.98329L8.01658 9.07496C7.84992 9.13329 7.68325 9.16663 7.49992 9.16663Z" fill="inherit"/>
</svg>
