<svg width="20" height="20" viewBox="0 0 20 20" fill="black" xmlns="http://www.w3.org/2000/svg">
<path d="M3.33341 4.99996H1.66675V16.6666C1.66675 17.5833 2.41675 18.3333 3.33341 18.3333H15.0001V16.6666H3.33341V4.99996ZM16.6667 1.66663H6.66675C5.75008 1.66663 5.00008 2.41663 5.00008 3.33329V13.3333C5.00008 14.25 5.75008 15 6.66675 15H16.6667C17.5834 15 18.3334 14.25 18.3334 13.3333V3.33329C18.3334 2.41663 17.5834 1.66663 16.6667 1.66663ZM15.8334 9.16663H12.5001V12.5H10.8334V9.16663H7.50008V7.49996H10.8334V4.16663H12.5001V7.49996H15.8334V9.16663Z" fill="inherit"/>
</svg>
