<svg width="20" height="21" viewBox="0 0 20 21" fill="black" xmlns="http://www.w3.org/2000/svg">
<path d="M10 3C8.01088 3 6.10322 3.79018 4.6967 5.1967C3.29018 6.60322 2.5 8.51088 2.5 10.5C2.5 12.4891 3.29018 14.3968 4.6967 15.8033C6.10322 17.2098 8.01088 18 10 18C10.6917 18 11.25 17.4417 11.25 16.75C11.25 16.425 11.125 16.1333 10.925 15.9083C10.7333 15.6917 10.6083 15.4 10.6083 15.0833C10.6083 14.3917 11.1667 13.8333 11.8583 13.8333H13.3333C15.6333 13.8333 17.5 11.9667 17.5 9.66667C17.5 5.98333 14.1417 3 10 3ZM5.41667 10.5C4.725 10.5 4.16667 9.94167 4.16667 9.25C4.16667 8.55833 4.725 8 5.41667 8C6.10833 8 6.66667 8.55833 6.66667 9.25C6.66667 9.94167 6.10833 10.5 5.41667 10.5ZM7.91667 7.16667C7.225 7.16667 6.66667 6.60833 6.66667 5.91667C6.66667 5.225 7.225 4.66667 7.91667 4.66667C8.60833 4.66667 9.16667 5.225 9.16667 5.91667C9.16667 6.60833 8.60833 7.16667 7.91667 7.16667ZM12.0833 7.16667C11.3917 7.16667 10.8333 6.60833 10.8333 5.91667C10.8333 5.225 11.3917 4.66667 12.0833 4.66667C12.775 4.66667 13.3333 5.225 13.3333 5.91667C13.3333 6.60833 12.775 7.16667 12.0833 7.16667ZM14.5833 10.5C13.8917 10.5 13.3333 9.94167 13.3333 9.25C13.3333 8.55833 13.8917 8 14.5833 8C15.275 8 15.8333 8.55833 15.8333 9.25C15.8333 9.94167 15.275 10.5 14.5833 10.5Z" fill="inherit"/>
</svg>
