<svg width="10" height="14" viewBox="0 0 10 14" fill="black" xmlns="http://www.w3.org/2000/svg">
<path d="M7.49609 3.7627C7.46094 3.40527 7.34082 3.09473 7.13574 2.83105C6.93652 2.56738 6.66113 2.37109 6.30957 2.24219C5.96387 2.10742 5.55957 2.04004 5.09668 2.04004C4.62793 2.04004 4.21777 2.11035 3.86621 2.25098C3.52051 2.3916 3.25098 2.58789 3.05762 2.83984C2.87012 3.0918 2.77637 3.38184 2.77637 3.70996C2.77637 4.19043 2.97559 4.5625 3.37402 4.82617C3.77832 5.08984 4.30566 5.30371 4.95605 5.46777L6.14258 5.7666C7.27344 6.03027 8.17871 6.44922 8.8584 7.02344C9.53809 7.59766 9.88086 8.39746 9.88672 9.42285C9.88672 10.167 9.69336 10.8232 9.30664 11.3916C8.92578 11.96 8.37207 12.4023 7.64551 12.7188C6.9248 13.0352 6.06055 13.1934 5.05273 13.1934C4.06836 13.1934 3.20996 13.041 2.47754 12.7363C1.75098 12.4258 1.18555 11.9746 0.78125 11.3828C0.376953 10.791 0.157227 10.0791 0.12207 9.24707H2.37207C2.40723 9.68066 2.54492 10.0469 2.78516 10.3457C3.02539 10.6387 3.33887 10.8613 3.72559 11.0137C4.1123 11.1602 4.54883 11.2334 5.03516 11.2334C5.53906 11.2334 5.98438 11.1572 6.37109 11.0049C6.75781 10.8525 7.05664 10.6387 7.26758 10.3633C7.48438 10.082 7.59277 9.7627 7.59277 9.40527C7.59277 9.08887 7.50195 8.82227 7.32031 8.60547C7.13867 8.38281 6.88086 8.19824 6.54688 8.05176C6.21875 7.90527 5.80273 7.76758 5.29883 7.63867L3.84863 7.26953C2.75879 6.98242 1.9209 6.56055 1.33496 6.00391C0.754883 5.44727 0.464844 4.72656 0.464844 3.8418C0.464844 3.10352 0.666992 2.45312 1.07129 1.89062C1.47559 1.32227 2.03223 0.882812 2.74121 0.572266C3.4502 0.255859 4.24707 0.0976562 5.13184 0.0976562C6.0166 0.0976562 6.80176 0.25293 7.4873 0.563477C8.17871 0.874023 8.71777 1.30762 9.10449 1.86426C9.49121 2.41504 9.69336 3.04785 9.71094 3.7627H7.49609Z" fill="inherit"/>
</svg>
