<svg width="20" height="20" viewBox="0 0 20 20" fill="black" xmlns="http://www.w3.org/2000/svg">
<path d="M16.1918 10.8167C16.2251 10.55 16.2501 10.2833 16.2501 10C16.2501 9.71666 16.2251 9.45 16.1918 9.18333L17.9501 7.80833C18.1084 7.68333 18.1501 7.45833 18.0501 7.275L16.3834 4.39166C16.3343 4.30569 16.2562 4.24001 16.163 4.20642C16.0699 4.17282 15.9678 4.1735 15.8751 4.20833L13.8001 5.04166C13.3668 4.70833 12.9001 4.43333 12.3918 4.225L12.0751 2.01667C12.0613 1.91862 12.0122 1.82897 11.9371 1.76453C11.8619 1.70009 11.7658 1.66529 11.6668 1.66666H8.33344C8.12511 1.66666 7.95011 1.81667 7.92511 2.01667L7.60844 4.225C7.10011 4.43333 6.63344 4.71667 6.20011 5.04166L4.12511 4.20833C4.07679 4.19194 4.02613 4.1835 3.97511 4.18333C3.83344 4.18333 3.69178 4.25833 3.61678 4.39166L1.95011 7.275C1.84178 7.45833 1.89178 7.68333 2.05011 7.80833L3.80844 9.18333C3.77511 9.45 3.75011 9.725 3.75011 10C3.75011 10.275 3.77511 10.55 3.80844 10.8167L2.05011 12.1917C1.89178 12.3167 1.85011 12.5417 1.95011 12.725L3.61678 15.6083C3.6659 15.6943 3.74404 15.76 3.83719 15.7936C3.93034 15.8272 4.03241 15.8265 4.12511 15.7917L6.20011 14.9583C6.63344 15.2917 7.10011 15.5667 7.60844 15.775L7.92511 17.9833C7.95011 18.1833 8.12511 18.3333 8.33344 18.3333H11.6668C11.8751 18.3333 12.0501 18.1833 12.0751 17.9833L12.3918 15.775C12.9001 15.5667 13.3668 15.2833 13.8001 14.9583L15.8751 15.7917C15.9251 15.8083 15.9751 15.8167 16.0251 15.8167C16.1668 15.8167 16.3084 15.7417 16.3834 15.6083L18.0501 12.725C18.1501 12.5417 18.1084 12.3167 17.9501 12.1917L16.1918 10.8167ZM14.5418 9.39167C14.5751 9.65 14.5834 9.825 14.5834 10C14.5834 10.175 14.5668 10.3583 14.5418 10.6083L14.4251 11.55L15.1668 12.1333L16.0668 12.8333L15.4834 13.8417L14.4251 13.4167L13.5584 13.0667L12.8084 13.6333C12.4501 13.9 12.1084 14.1 11.7668 14.2417L10.8834 14.6L10.7501 15.5417L10.5834 16.6667H9.41678L9.25844 15.5417L9.12511 14.6L8.24178 14.2417C7.88344 14.0917 7.55011 13.9 7.21678 13.65L6.45844 13.0667L5.57511 13.425L4.51678 13.85L3.93344 12.8417L4.83344 12.1417L5.57511 11.5583L5.45844 10.6167C5.43344 10.3583 5.41678 10.1667 5.41678 10C5.41678 9.83333 5.43344 9.64167 5.45844 9.39167L5.57511 8.45L4.83344 7.86666L3.93344 7.16667L4.51678 6.15833L5.57511 6.58333L6.44178 6.93333L7.19178 6.36666C7.55011 6.1 7.89178 5.9 8.23344 5.75833L9.11678 5.4L9.25011 4.45833L9.41678 3.33333H10.5751L10.7334 4.45833L10.8668 5.4L11.7501 5.75833C12.1084 5.90833 12.4418 6.1 12.7751 6.35L13.5334 6.93333L14.4168 6.575L15.4751 6.15L16.0584 7.15833L15.1668 7.86666L14.4251 8.45L14.5418 9.39167ZM10.0001 6.66666C8.15844 6.66666 6.66678 8.15833 6.66678 10C6.66678 11.8417 8.15844 13.3333 10.0001 13.3333C11.8418 13.3333 13.3334 11.8417 13.3334 10C13.3334 8.15833 11.8418 6.66666 10.0001 6.66666ZM10.0001 11.6667C9.08344 11.6667 8.33344 10.9167 8.33344 10C8.33344 9.08333 9.08344 8.33333 10.0001 8.33333C10.9168 8.33333 11.6668 9.08333 11.6668 10C11.6668 10.9167 10.9168 11.6667 10.0001 11.6667Z" fill="inherit"/>
</svg>
