<svg width="20" height="20" viewBox="0 0 20 20" fill="black" xmlns="http://www.w3.org/2000/svg">
<path d="M6.66675 6.66663H13.3334V13.3333H6.66675V6.66663Z" fill="inherit"/>
<path d="M10.0001 1.66663C5.40008 1.66663 1.66675 5.39996 1.66675 9.99996C1.66675 14.6 5.40008 18.3333 10.0001 18.3333C14.6001 18.3333 18.3334 14.6 18.3334 9.99996C18.3334 5.39996 14.6001 1.66663 10.0001 1.66663ZM10.0001 16.6666C6.32508 16.6666 3.33341 13.675 3.33341 9.99996C3.33341 6.32496 6.32508 3.33329 10.0001 3.33329C13.6751 3.33329 16.6667 6.32496 16.6667 9.99996C16.6667 13.675 13.6751 16.6666 10.0001 16.6666Z" fill="inherit"/>
</svg>
